<svg width="43" height="44" viewBox="0 0 43 44" fill="none" xmlns="http://www.w3.org/2000/svg">
<g clip-path="url(#clip0_28_2231)">
<path d="M30.5 24.7266H31.3958V23.8307V20.1641V19.2682H30.5H24.0625V12.8307V11.9349H23.1667H19.5H18.6042V12.8307V19.2682H12.1667H11.2708V20.1641V23.8307V24.7266H12.1667H18.6042V31.1641V32.0599H19.5H23.1667H24.0625V31.1641V24.7266H30.5ZM3.89583 21.9974C3.89583 12.3722 11.7081 4.5599 21.3333 4.5599C30.9586 4.5599 38.7708 12.3722 38.7708 21.9974C38.7708 31.6226 30.9586 39.4349 21.3333 39.4349C11.7081 39.4349 3.89583 31.6226 3.89583 21.9974Z" fill="url(#paint0_linear_28_2231)" stroke="url(#paint1_linear_28_2231)" stroke-width="1.79167"/>
</g>
<defs>
<linearGradient id="paint0_linear_28_2231" x1="-0.492066" y1="21.9974" x2="84.8267" y2="64.5709" gradientUnits="userSpaceOnUse">
<stop stop-color="#FF7A00"/>
<stop offset="1" stop-color="#F6C86B" stop-opacity="0.6"/>
</linearGradient>
<linearGradient id="paint1_linear_28_2231" x1="-4.27011" y1="22.0511" x2="47.569" y2="22.0511" gradientUnits="userSpaceOnUse">
<stop stop-color="#FF7A00"/>
<stop offset="1" stop-color="#F6C86B" stop-opacity="0"/>
</linearGradient>
<clipPath id="clip0_28_2231">
<rect width="43" height="44" fill="white"/>
</clipPath>
</defs>
</svg>
