<svg width="12" height="12" viewBox="0 0 12 12" fill="none" xmlns="http://www.w3.org/2000/svg">
<g id="Local fire department">
<g clip-path="url(#clip0_101_1746)">
<g id="Group">
<path id="Vector" d="M9.74 6.17507C8.955 4.13507 6.16 4.02507 6.835 1.06007C6.885 0.84007 6.65 0.67007 6.46 0.78507C4.645 1.85507 3.34 4.00007 4.435 6.81007C4.525 7.04007 4.255 7.25507 4.06 7.10507C3.155 6.42007 3.06 5.43507 3.14 4.73007C3.17 4.47007 2.83 4.34507 2.685 4.56007C2.345 5.08007 2 5.92007 2 7.18507C2.19 9.98507 4.555 10.8451 5.405 10.9551C6.62 11.1101 7.935 10.8851 8.88 10.0201C9.92 9.05507 10.3 7.51507 9.74 6.17507ZM5.1 8.69007C5.82 8.51507 6.19 7.99507 6.29 7.53507C6.455 6.82007 5.81 6.12007 6.245 4.99007C6.41 5.92507 7.88 6.51007 7.88 7.53007C7.92 8.79507 6.55 9.88007 5.1 8.69007Z" fill="#F5C04D"/>
</g>
</g>
</g>
<defs>
<clipPath id="clip0_101_1746">
<rect width="12" height="12" rx="6" fill="white"/>
</clipPath>
</defs>
</svg>
