<svg width="20" height="20" viewBox="0 0 20 20" fill="none" xmlns="http://www.w3.org/2000/svg">
<g id="Shopping basket" clip-path="url(#clip0_101_6089)">
<path id="Vector" d="M18.3334 7.49977H14.3417L10.6917 2.03311C10.5334 1.79977 10.2667 1.68311 10 1.68311C9.73338 1.68311 9.46671 1.79977 9.30838 2.04144L5.65837 7.49977H1.66671C1.20837 7.49977 0.833374 7.87477 0.833374 8.33311C0.833374 8.40811 0.841707 8.48311 0.866707 8.55811L2.98337 16.2831C3.17504 16.9831 3.81671 17.4998 4.58337 17.4998H15.4167C16.1834 17.4998 16.825 16.9831 17.025 16.2831L19.1417 8.55811L19.1667 8.33311C19.1667 7.87477 18.7917 7.49977 18.3334 7.49977ZM10 3.99977L12.3334 7.49977H7.66671L10 3.99977ZM15.4167 15.8331L4.59171 15.8414L2.75837 9.16644H17.25L15.4167 15.8331ZM10 10.8331C9.08337 10.8331 8.33337 11.5831 8.33337 12.4998C8.33337 13.4164 9.08337 14.1664 10 14.1664C10.9167 14.1664 11.6667 13.4164 11.6667 12.4998C11.6667 11.5831 10.9167 10.8331 10 10.8331Z" fill="white"/>
</g>
<defs>
<clipPath id="clip0_101_6089">
<rect width="20" height="20" fill="white"/>
</clipPath>
</defs>
</svg>
